<?xml version="1.0" encoding="UTF-8" standalone="no"?><svg xmlns="http://www.w3.org/2000/svg" xmlns:xlink="http://www.w3.org/1999/xlink"><symbol id="angle-down" xmlns="http://www.w3.org/2000/svg" viewBox="0 0 448 512"><path d="M201.4 342.6c12.5 12.5 32.8 12.5 45.3 0l160-160c12.5-12.5 12.5-32.8 0-45.3s-32.8-12.5-45.3 0L224 274.7 86.6 137.4c-12.5-12.5-32.8-12.5-45.3 0s-12.5 32.8 0 45.3l160 160z"></path></symbol><symbol id="angle-up" xmlns="http://www.w3.org/2000/svg" viewBox="0 0 448 512"><path d="M201.4 137.4c12.5-12.5 32.8-12.5 45.3 0l160 160c12.5 12.5 12.5 32.8 0 45.3s-32.8 12.5-45.3 0L224 205.3 86.6 342.6c-12.5 12.5-32.8 12.5-45.3 0s-12.5-32.8 0-45.3l160-160z"></path></symbol><symbol id="angle-left" xmlns="http://www.w3.org/2000/svg" viewBox="0 0 320 512"><path d="M41.4 233.4c-12.5 12.5-12.5 32.8 0 45.3l160 160c12.5 12.5 32.8 12.5 45.3 0s12.5-32.8 0-45.3L109.3 256 246.6 118.6c12.5-12.5 12.5-32.8 0-45.3s-32.8-12.5-45.3 0l-160 160z"></path></symbol><symbol id="angle-right" xmlns="http://www.w3.org/2000/svg" viewBox="0 0 320 512"><path d="M278.6 233.4c12.5 12.5 12.5 32.8 0 45.3l-160 160c-12.5 12.5-32.8 12.5-45.3 0s-12.5-32.8 0-45.3L210.7 256 73.4 118.6c-12.5-12.5-12.5-32.8 0-45.3s32.8-12.5 45.3 0l160 160z"></path></symbol><symbol id="arrow-down-long" xmlns="http://www.w3.org/2000/svg" viewBox="0 0 384 512"><path d="M169.4 502.6c12.5 12.5 32.8 12.5 45.3 0l128-128c12.5-12.5 12.5-32.8 0-45.3s-32.8-12.5-45.3 0L224 402.7 224 32c0-17.7-14.3-32-32-32s-32 14.3-32 32l0 370.7L86.6 329.4c-12.5-12.5-32.8-12.5-45.3 0s-12.5 32.8 0 45.3l128 128z"></path></symbol><symbol id="arrow-down-z-a" xmlns="http://www.w3.org/2000/svg" viewBox="0 0 576 512"><path d="M183.6 469.6C177.5 476.2 169 480 160 480s-17.5-3.8-23.6-10.4l-88-96c-11.9-13-11.1-33.3 2-45.2s33.3-11.1 45.2 2L128 365.7V64c0-17.7 14.3-32 32-32s32 14.3 32 32V365.7l32.4-35.4c11.9-13 32.2-13.9 45.2-2s13.9 32.2 2 45.2l-88 96zM320 64c0-17.7 14.3-32 32-32H480c12.9 0 24.6 7.8 29.6 19.8s2.2 25.7-6.9 34.9L429.3 160H480c17.7 0 32 14.3 32 32s-14.3 32-32 32H352c-12.9 0-24.6-7.8-29.6-19.8s-2.2-25.7 6.9-34.9L402.7 96H352c-17.7 0-32-14.3-32-32zm96 192c12.1 0 23.2 6.8 28.6 17.7l64 128 16 32c7.9 15.8 1.5 35-14.3 42.9s-35 1.5-42.9-14.3L460.2 448H371.8l-7.2 14.3c-7.9 15.8-27.1 22.2-42.9 14.3s-22.2-27.1-14.3-42.9l16-32 64-128c5.4-10.8 16.5-17.7 28.6-17.7zM395.8 400h40.4L416 359.6 395.8 400z"></path></symbol><symbol id="arrow-right-arrow-left" xmlns="http://www.w3.org/2000/svg" viewBox="0 0 448 512"><path d="M438.6 150.6c12.5-12.5 12.5-32.8 0-45.3l-96-96c-12.5-12.5-32.8-12.5-45.3 0s-12.5 32.8 0 45.3L338.7 96 32 96C14.3 96 0 110.3 0 128s14.3 32 32 32l306.7 0-41.4 41.4c-12.5 12.5-12.5 32.8 0 45.3s32.8 12.5 45.3 0l96-96zm-333.3 352c12.5 12.5 32.8 12.5 45.3 0s12.5-32.8 0-45.3L109.3 416 416 416c17.7 0 32-14.3 32-32s-14.3-32-32-32l-306.7 0 41.4-41.4c12.5-12.5 12.5-32.8 0-45.3s-32.8-12.5-45.3 0l-96 96c-12.5 12.5-12.5 32.8 0 45.3l96 96z"></path></symbol><symbol id="arrow-down-short-wide" xmlns="http://www.w3.org/2000/svg" viewBox="0 0 576 512"><path d="M151.6 469.6C145.5 476.2 137 480 128 480s-17.5-3.8-23.6-10.4l-88-96c-11.9-13-11.1-33.3 2-45.2s33.3-11.1 45.2 2L96 365.7V64c0-17.7 14.3-32 32-32s32 14.3 32 32V365.7l32.4-35.4c11.9-13 32.2-13.9 45.2-2s13.9 32.2 2 45.2l-88 96zM320 32h32c17.7 0 32 14.3 32 32s-14.3 32-32 32H320c-17.7 0-32-14.3-32-32s14.3-32 32-32zm0 128h96c17.7 0 32 14.3 32 32s-14.3 32-32 32H320c-17.7 0-32-14.3-32-32s14.3-32 32-32zm0 128H480c17.7 0 32 14.3 32 32s-14.3 32-32 32H320c-17.7 0-32-14.3-32-32s14.3-32 32-32zm0 128H544c17.7 0 32 14.3 32 32s-14.3 32-32 32H320c-17.7 0-32-14.3-32-32s14.3-32 32-32z"></path></symbol><symbol id="arrow-down" xmlns="http://www.w3.org/2000/svg" viewBox="0 0 384 512"><path d="M169.4 470.6c12.5 12.5 32.8 12.5 45.3 0l160-160c12.5-12.5 12.5-32.8 0-45.3s-32.8-12.5-45.3 0L224 370.8 224 64c0-17.7-14.3-32-32-32s-32 14.3-32 32l0 306.7L54.6 265.4c-12.5-12.5-32.8-12.5-45.3 0s-12.5 32.8 0 45.3l160 160z"></path></symbol><symbol id="arrow-down-a-z" xmlns="http://www.w3.org/2000/svg" viewBox="0 0 576 512"><path d="M183.6 469.6C177.5 476.2 169 480 160 480s-17.5-3.8-23.6-10.4l-88-96c-11.9-13-11.1-33.3 2-45.2s33.3-11.1 45.2 2L128 365.7V64c0-17.7 14.3-32 32-32s32 14.3 32 32V365.7l32.4-35.4c11.9-13 32.2-13.9 45.2-2s13.9 32.2 2 45.2l-88 96zM320 320c0-17.7 14.3-32 32-32H480c12.9 0 24.6 7.8 29.6 19.8s2.2 25.7-6.9 34.9L429.3 416H480c17.7 0 32 14.3 32 32s-14.3 32-32 32H352c-12.9 0-24.6-7.8-29.6-19.8s-2.2-25.7 6.9-34.9L402.7 352H352c-17.7 0-32-14.3-32-32zM416 32c12.1 0 23.2 6.8 28.6 17.7l64 128 16 32c7.9 15.8 1.5 35-14.3 42.9s-35 1.5-42.9-14.3L460.2 224H371.8l-7.2 14.3c-7.9 15.8-27.1 22.2-42.9 14.3s-22.2-27.1-14.3-42.9l16-32 64-128C392.8 38.8 403.9 32 416 32zM395.8 176h40.4L416 135.6 395.8 176z"></path></symbol><symbol id="arrow-left-long" xmlns="http://www.w3.org/2000/svg" viewBox="0 0 512 512"><path d="M9.4 233.4c-12.5 12.5-12.5 32.8 0 45.3l128 128c12.5 12.5 32.8 12.5 45.3 0s12.5-32.8 0-45.3L109.3 288 480 288c17.7 0 32-14.3 32-32s-14.3-32-32-32l-370.7 0 73.4-73.4c12.5-12.5 12.5-32.8 0-45.3s-32.8-12.5-45.3 0l-128 128z"></path></symbol><symbol id="arrow-right-long" xmlns="http://www.w3.org/2000/svg" viewBox="0 0 512 512"><path d="M502.6 278.6c12.5-12.5 12.5-32.8 0-45.3l-128-128c-12.5-12.5-32.8-12.5-45.3 0s-12.5 32.8 0 45.3L402.7 224 32 224c-17.7 0-32 14.3-32 32s14.3 32 32 32l370.7 0-73.4 73.4c-12.5 12.5-12.5 32.8 0 45.3s32.8 12.5 45.3 0l128-128z"></path></symbol><symbol id="arrow-left" xmlns="http://www.w3.org/2000/svg" viewBox="0 0 448 512"><path d="M9.4 233.4c-12.5 12.5-12.5 32.8 0 45.3l160 160c12.5 12.5 32.8 12.5 45.3 0s12.5-32.8 0-45.3L109.2 288 416 288c17.7 0 32-14.3 32-32s-14.3-32-32-32l-306.7 0L214.6 118.6c12.5-12.5 12.5-32.8 0-45.3s-32.8-12.5-45.3 0l-160 160z"></path></symbol><symbol id="arrow-right-to-bracket" xmlns="http://www.w3.org/2000/svg" viewBox="0 0 512 512"><path d="M352 96l64 0c17.7 0 32 14.3 32 32l0 256c0 17.7-14.3 32-32 32l-64 0c-17.7 0-32 14.3-32 32s14.3 32 32 32l64 0c53 0 96-43 96-96l0-256c0-53-43-96-96-96l-64 0c-17.7 0-32 14.3-32 32s14.3 32 32 32zm-9.4 182.6c12.5-12.5 12.5-32.8 0-45.3l-128-128c-12.5-12.5-32.8-12.5-45.3 0s-12.5 32.8 0 45.3L242.7 224 32 224c-17.7 0-32 14.3-32 32s14.3 32 32 32l210.7 0-73.4 73.4c-12.5 12.5-12.5 32.8 0 45.3s32.8 12.5 45.3 0l128-128z"></path></symbol><symbol id="arrow-rotate-left" xmlns="http://www.w3.org/2000/svg" viewBox="0 0 512 512"><path d="M125.7 160H176c17.7 0 32 14.3 32 32s-14.3 32-32 32H48c-17.7 0-32-14.3-32-32V64c0-17.7 14.3-32 32-32s32 14.3 32 32v51.2L97.6 97.6c87.5-87.5 229.3-87.5 316.8 0s87.5 229.3 0 316.8s-229.3 87.5-316.8 0c-12.5-12.5-12.5-32.8 0-45.3s32.8-12.5 45.3 0c62.5 62.5 163.8 62.5 226.3 0s62.5-163.8 0-226.3s-163.8-62.5-226.3 0L125.7 160z"></path></symbol><symbol id="arrow-right-from-bracket" xmlns="http://www.w3.org/2000/svg" viewBox="0 0 512 512"><path d="M502.6 278.6c12.5-12.5 12.5-32.8 0-45.3l-128-128c-12.5-12.5-32.8-12.5-45.3 0s-12.5 32.8 0 45.3L402.7 224 192 224c-17.7 0-32 14.3-32 32s14.3 32 32 32l210.7 0-73.4 73.4c-12.5 12.5-12.5 32.8 0 45.3s32.8 12.5 45.3 0l128-128zM160 96c17.7 0 32-14.3 32-32s-14.3-32-32-32L96 32C43 32 0 75 0 128L0 384c0 53 43 96 96 96l64 0c17.7 0 32-14.3 32-32s-14.3-32-32-32l-64 0c-17.7 0-32-14.3-32-32l0-256c0-17.7 14.3-32 32-32l64 0z"></path></symbol><symbol id="arrow-down-wide-short" xmlns="http://www.w3.org/2000/svg" viewBox="0 0 576 512"><path d="M151.6 469.6C145.5 476.2 137 480 128 480s-17.5-3.8-23.6-10.4l-88-96c-11.9-13-11.1-33.3 2-45.2s33.3-11.1 45.2 2L96 365.7V64c0-17.7 14.3-32 32-32s32 14.3 32 32V365.7l32.4-35.4c11.9-13 32.2-13.9 45.2-2s13.9 32.2 2 45.2l-88 96zM320 480c-17.7 0-32-14.3-32-32s14.3-32 32-32h32c17.7 0 32 14.3 32 32s-14.3 32-32 32H320zm0-128c-17.7 0-32-14.3-32-32s14.3-32 32-32h96c17.7 0 32 14.3 32 32s-14.3 32-32 32H320zm0-128c-17.7 0-32-14.3-32-32s14.3-32 32-32H480c17.7 0 32 14.3 32 32s-14.3 32-32 32H320zm0-128c-17.7 0-32-14.3-32-32s14.3-32 32-32H544c17.7 0 32 14.3 32 32s-14.3 32-32 32H320z"></path></symbol><symbol id="arrow-rotate-right" xmlns="http://www.w3.org/2000/svg" viewBox="0 0 512 512"><path d="M386.3 160H336c-17.7 0-32 14.3-32 32s14.3 32 32 32H464c17.7 0 32-14.3 32-32V64c0-17.7-14.3-32-32-32s-32 14.3-32 32v51.2L414.4 97.6c-87.5-87.5-229.3-87.5-316.8 0s-87.5 229.3 0 316.8s229.3 87.5 316.8 0c12.5-12.5 12.5-32.8 0-45.3s-32.8-12.5-45.3 0c-62.5 62.5-163.8 62.5-226.3 0s-62.5-163.8 0-226.3s163.8-62.5 226.3 0L386.3 160z"></path></symbol><symbol id="arrow-trend-down" xmlns="http://www.w3.org/2000/svg" viewBox="0 0 576 512"><path d="M384 352c-17.7 0-32 14.3-32 32s14.3 32 32 32H544c17.7 0 32-14.3 32-32V224c0-17.7-14.3-32-32-32s-32 14.3-32 32v82.7L342.6 137.4c-12.5-12.5-32.8-12.5-45.3 0L192 242.7 54.6 105.4c-12.5-12.5-32.8-12.5-45.3 0s-12.5 32.8 0 45.3l160 160c12.5 12.5 32.8 12.5 45.3 0L320 205.3 466.7 352H384z"></path></symbol><symbol id="arrow-turn-down" xmlns="http://www.w3.org/2000/svg" viewBox="0 0 384 512"><path d="M32 64C14.3 64 0 49.7 0 32S14.3 0 32 0l96 0c53 0 96 43 96 96l0 306.7 73.4-73.4c12.5-12.5 32.8-12.5 45.3 0s12.5 32.8 0 45.3l-128 128c-12.5 12.5-32.8 12.5-45.3 0l-128-128c-12.5-12.5-12.5-32.8 0-45.3s32.8-12.5 45.3 0L160 402.7 160 96c0-17.7-14.3-32-32-32L32 64z"></path></symbol><symbol id="arrow-right" xmlns="http://www.w3.org/2000/svg" viewBox="0 0 448 512"><path d="M438.6 278.6c12.5-12.5 12.5-32.8 0-45.3l-160-160c-12.5-12.5-32.8-12.5-45.3 0s-12.5 32.8 0 45.3L338.8 224 32 224c-17.7 0-32 14.3-32 32s14.3 32 32 32l306.7 0L233.4 393.4c-12.5 12.5-12.5 32.8 0 45.3s32.8 12.5 45.3 0l160-160z"></path></symbol><symbol id="arrow-trend-up" xmlns="http://www.w3.org/2000/svg" viewBox="0 0 576 512"><path d="M384 160c-17.7 0-32-14.3-32-32s14.3-32 32-32H544c17.7 0 32 14.3 32 32V288c0 17.7-14.3 32-32 32s-32-14.3-32-32V205.3L342.6 374.6c-12.5 12.5-32.8 12.5-45.3 0L192 269.3 54.6 406.6c-12.5 12.5-32.8 12.5-45.3 0s-12.5-32.8 0-45.3l160-160c12.5-12.5 32.8-12.5 45.3 0L320 306.7 466.7 160H384z"></path></symbol><symbol id="arrow-turn-up" xmlns="http://www.w3.org/2000/svg" viewBox="0 0 384 512"><path d="M32 448c-17.7 0-32 14.3-32 32s14.3 32 32 32l96 0c53 0 96-43 96-96l0-306.7 73.4 73.4c12.5 12.5 32.8 12.5 45.3 0s12.5-32.8 0-45.3l-128-128c-12.5-12.5-32.8-12.5-45.3 0l-128 128c-12.5 12.5-12.5 32.8 0 45.3s32.8 12.5 45.3 0L160 109.3 160 416c0 17.7-14.3 32-32 32l-96 0z"></path></symbol><symbol id="arrow-up-a-z" xmlns="http://www.w3.org/2000/svg" viewBox="0 0 576 512"><path d="M183.6 42.4C177.5 35.8 169 32 160 32s-17.5 3.8-23.6 10.4l-88 96c-11.9 13-11.1 33.3 2 45.2s33.3 11.1 45.2-2L128 146.3V448c0 17.7 14.3 32 32 32s32-14.3 32-32V146.3l32.4 35.4c11.9 13 32.2 13.9 45.2 2s13.9-32.2 2-45.2l-88-96zM320 320c0 17.7 14.3 32 32 32h50.7l-73.4 73.4c-9.2 9.2-11.9 22.9-6.9 34.9s16.6 19.8 29.6 19.8H480c17.7 0 32-14.3 32-32s-14.3-32-32-32H429.3l73.4-73.4c9.2-9.2 11.9-22.9 6.9-34.9s-16.6-19.8-29.6-19.8H352c-17.7 0-32 14.3-32 32zM416 32c-12.1 0-23.2 6.8-28.6 17.7l-64 128-16 32c-7.9 15.8-1.5 35 14.3 42.9s35 1.5 42.9-14.3l7.2-14.3h88.4l7.2 14.3c7.9 15.8 27.1 22.2 42.9 14.3s22.2-27.1 14.3-42.9l-16-32-64-128C439.2 38.8 428.1 32 416 32zM395.8 176L416 135.6 436.2 176H395.8z"></path></symbol><symbol id="arrow-up-from-bracket" xmlns="http://www.w3.org/2000/svg" viewBox="0 0 448 512"><path d="M246.6 9.4c-12.5-12.5-32.8-12.5-45.3 0l-128 128c-12.5 12.5-12.5 32.8 0 45.3s32.8 12.5 45.3 0L192 109.3V320c0 17.7 14.3 32 32 32s32-14.3 32-32V109.3l73.4 73.4c12.5 12.5 32.8 12.5 45.3 0s12.5-32.8 0-45.3l-128-128zM64 352c0-17.7-14.3-32-32-32s-32 14.3-32 32v64c0 53 43 96 96 96H352c53 0 96-43 96-96V352c0-17.7-14.3-32-32-32s-32 14.3-32 32v64c0 17.7-14.3 32-32 32H96c-17.7 0-32-14.3-32-32V352z"></path></symbol><symbol id="arrow-up-right-from-square" xmlns="http://www.w3.org/2000/svg" viewBox="0 0 512 512"><path d="M320 0c-17.7 0-32 14.3-32 32s14.3 32 32 32h82.7L201.4 265.4c-12.5 12.5-12.5 32.8 0 45.3s32.8 12.5 45.3 0L448 109.3V192c0 17.7 14.3 32 32 32s32-14.3 32-32V32c0-17.7-14.3-32-32-32H320zM80 32C35.8 32 0 67.8 0 112V432c0 44.2 35.8 80 80 80H400c44.2 0 80-35.8 80-80V320c0-17.7-14.3-32-32-32s-32 14.3-32 32V432c0 8.8-7.2 16-16 16H80c-8.8 0-16-7.2-16-16V112c0-8.8 7.2-16 16-16H192c17.7 0 32-14.3 32-32s-14.3-32-32-32H80z"></path></symbol><symbol id="arrow-up-short-wide" xmlns="http://www.w3.org/2000/svg" viewBox="0 0 576 512"><path d="M151.6 42.4C145.5 35.8 137 32 128 32s-17.5 3.8-23.6 10.4l-88 96c-11.9 13-11.1 33.3 2 45.2s33.3 11.1 45.2-2L96 146.3V448c0 17.7 14.3 32 32 32s32-14.3 32-32V146.3l32.4 35.4c11.9 13 32.2 13.9 45.2 2s13.9-32.2 2-45.2l-88-96zM320 32c-17.7 0-32 14.3-32 32s14.3 32 32 32h32c17.7 0 32-14.3 32-32s-14.3-32-32-32H320zm0 128c-17.7 0-32 14.3-32 32s14.3 32 32 32h96c17.7 0 32-14.3 32-32s-14.3-32-32-32H320zm0 128c-17.7 0-32 14.3-32 32s14.3 32 32 32H480c17.7 0 32-14.3 32-32s-14.3-32-32-32H320zm0 128c-17.7 0-32 14.3-32 32s14.3 32 32 32H544c17.7 0 32-14.3 32-32s-14.3-32-32-32H320z"></path></symbol><symbol id="arrow-up-long" xmlns="http://www.w3.org/2000/svg" viewBox="0 0 384 512"><path d="M214.6 9.4c-12.5-12.5-32.8-12.5-45.3 0l-128 128c-12.5 12.5-12.5 32.8 0 45.3s32.8 12.5 45.3 0L160 109.3V480c0 17.7 14.3 32 32 32s32-14.3 32-32V109.3l73.4 73.4c12.5 12.5 32.8 12.5 45.3 0s12.5-32.8 0-45.3l-128-128z"></path></symbol><symbol id="arrow-up-z-a" xmlns="http://www.w3.org/2000/svg" viewBox="0 0 576 512"><path d="M183.6 42.4C177.5 35.8 169 32 160 32s-17.5 3.8-23.6 10.4l-88 96c-11.9 13-11.1 33.3 2 45.2s33.3 11.1 45.2-2L128 146.3V448c0 17.7 14.3 32 32 32s32-14.3 32-32V146.3l32.4 35.4c11.9 13 32.2 13.9 45.2 2s13.9-32.2 2-45.2l-88-96zM320 64c0 17.7 14.3 32 32 32h50.7l-73.4 73.4c-9.2 9.2-11.9 22.9-6.9 34.9s16.6 19.8 29.6 19.8H480c17.7 0 32-14.3 32-32s-14.3-32-32-32H429.3l73.4-73.4c9.2-9.2 11.9-22.9 6.9-34.9s-16.6-19.8-29.6-19.8H352c-17.7 0-32 14.3-32 32zm96 192c-12.1 0-23.2 6.8-28.6 17.7l-64 128-16 32c-7.9 15.8-1.5 35 14.3 42.9s35 1.5 42.9-14.3l7.2-14.3h88.4l7.2 14.3c7.9 15.8 27.1 22.2 42.9 14.3s22.2-27.1 14.3-42.9l-16-32-64-128C439.2 262.8 428.1 256 416 256zM395.8 400L416 359.6 436.2 400H395.8z"></path></symbol><symbol id="arrow-up" xmlns="http://www.w3.org/2000/svg" viewBox="0 0 384 512"><path d="M214.6 41.4c-12.5-12.5-32.8-12.5-45.3 0l-160 160c-12.5 12.5-12.5 32.8 0 45.3s32.8 12.5 45.3 0L160 141.2V448c0 17.7 14.3 32 32 32s32-14.3 32-32V141.2L329.4 246.6c12.5 12.5 32.8 12.5 45.3 0s12.5-32.8 0-45.3l-160-160z"></path></symbol><symbol id="arrows-down-to-line" xmlns="http://www.w3.org/2000/svg" viewBox="0 0 576 512"><path d="M544 416L32 416c-17.7 0-32 14.3-32 32s14.3 32 32 32l512 0c17.7 0 32-14.3 32-32s-14.3-32-32-32zm22.6-137.4c12.5-12.5 12.5-32.8 0-45.3s-32.8-12.5-45.3 0L480 274.7 480 64c0-17.7-14.3-32-32-32s-32 14.3-32 32l0 210.7-41.4-41.4c-12.5-12.5-32.8-12.5-45.3 0s-12.5 32.8 0 45.3l96 96c12.5 12.5 32.8 12.5 45.3 0l96-96zm-320-45.3c-12.5-12.5-32.8-12.5-45.3 0L160 274.7 160 64c0-17.7-14.3-32-32-32s-32 14.3-32 32l0 210.7L54.6 233.4c-12.5-12.5-32.8-12.5-45.3 0s-12.5 32.8 0 45.3l96 96c12.5 12.5 32.8 12.5 45.3 0l96-96c12.5-12.5 12.5-32.8 0-45.3z"></path></symbol><symbol id="arrows-left-right-to-line" xmlns="http://www.w3.org/2000/svg" viewBox="0 0 640 512"><path d="M32 64c17.7 0 32 14.3 32 32l0 320c0 17.7-14.3 32-32 32s-32-14.3-32-32V96C0 78.3 14.3 64 32 64zm214.6 73.4c12.5 12.5 12.5 32.8 0 45.3L205.3 224l229.5 0-41.4-41.4c-12.5-12.5-12.5-32.8 0-45.3s32.8-12.5 45.3 0l96 96c12.5 12.5 12.5 32.8 0 45.3l-96 96c-12.5 12.5-32.8 12.5-45.3 0s-12.5-32.8 0-45.3L434.7 288l-229.5 0 41.4 41.4c12.5 12.5 12.5 32.8 0 45.3s-32.8 12.5-45.3 0l-96-96c-12.5-12.5-12.5-32.8 0-45.3l96-96c12.5-12.5 32.8-12.5 45.3 0zM640 96V416c0 17.7-14.3 32-32 32s-32-14.3-32-32V96c0-17.7 14.3-32 32-32s32 14.3 32 32z"></path></symbol><symbol id="arrows-rotate" xmlns="http://www.w3.org/2000/svg" viewBox="0 0 512 512"><path d="M105.1 202.6c7.7-21.8 20.2-42.3 37.8-59.8c62.5-62.5 163.8-62.5 226.3 0L386.3 160H336c-17.7 0-32 14.3-32 32s14.3 32 32 32H463.5c0 0 0 0 0 0h.4c17.7 0 32-14.3 32-32V64c0-17.7-14.3-32-32-32s-32 14.3-32 32v51.2L414.4 97.6c-87.5-87.5-229.3-87.5-316.8 0C73.2 122 55.6 150.7 44.8 181.4c-5.9 16.7 2.9 34.9 19.5 40.8s34.9-2.9 40.8-19.5zM39 289.3c-5 1.5-9.8 4.2-13.7 8.2c-4 4-6.7 8.8-8.1 14c-.3 1.2-.6 2.5-.8 3.8c-.3 1.7-.4 3.4-.4 5.1V448c0 17.7 14.3 32 32 32s32-14.3 32-32V396.9l17.6 17.5 0 0c87.5 87.4 229.3 87.4 316.7 0c24.4-24.4 42.1-53.1 52.9-83.7c5.9-16.7-2.9-34.9-19.5-40.8s-34.9 2.9-40.8 19.5c-7.7 21.8-20.2 42.3-37.8 59.8c-62.5 62.5-163.8 62.5-226.3 0l-.1-.1L125.6 352H176c17.7 0 32-14.3 32-32s-14.3-32-32-32H48.4c-1.6 0-3.2 .1-4.8 .3s-3.1 .5-4.6 1z"></path></symbol><symbol id="arrow-up-wide-short" xmlns="http://www.w3.org/2000/svg" viewBox="0 0 576 512"><path d="M151.6 42.4C145.5 35.8 137 32 128 32s-17.5 3.8-23.6 10.4l-88 96c-11.9 13-11.1 33.3 2 45.2s33.3 11.1 45.2-2L96 146.3V448c0 17.7 14.3 32 32 32s32-14.3 32-32V146.3l32.4 35.4c11.9 13 32.2 13.9 45.2 2s13.9-32.2 2-45.2l-88-96zM320 480h32c17.7 0 32-14.3 32-32s-14.3-32-32-32H320c-17.7 0-32 14.3-32 32s14.3 32 32 32zm0-128h96c17.7 0 32-14.3 32-32s-14.3-32-32-32H320c-17.7 0-32 14.3-32 32s14.3 32 32 32zm0-128H480c17.7 0 32-14.3 32-32s-14.3-32-32-32H320c-17.7 0-32 14.3-32 32s14.3 32 32 32zm0-128H544c17.7 0 32-14.3 32-32s-14.3-32-32-32H320c-17.7 0-32 14.3-32 32s14.3 32 32 32z"></path></symbol><symbol id="arrows-left-right" xmlns="http://www.w3.org/2000/svg" viewBox="0 0 512 512"><path d="M406.6 374.6l96-96c12.5-12.5 12.5-32.8 0-45.3l-96-96c-12.5-12.5-32.8-12.5-45.3 0s-12.5 32.8 0 45.3L402.7 224l-293.5 0 41.4-41.4c12.5-12.5 12.5-32.8 0-45.3s-32.8-12.5-45.3 0l-96 96c-12.5 12.5-12.5 32.8 0 45.3l96 96c12.5 12.5 32.8 12.5 45.3 0s12.5-32.8 0-45.3L109.3 288l293.5 0-41.4 41.4c-12.5 12.5-12.5 32.8 0 45.3s32.8 12.5 45.3 0z"></path></symbol><symbol id="flag-gr" xmlns="http://www.w3.org/2000/svg" viewBox="0 0 512 512"><path fill="#0d5eaf" fill-rule="evenodd" d="M0 0h512v57H0z"></path><path fill="#fff" fill-rule="evenodd" d="M0 57h512v57H0z"></path><path fill="#0d5eaf" fill-rule="evenodd" d="M0 114h512v57H0z"></path><path fill="#fff" fill-rule="evenodd" d="M0 171h512v57H0z"></path><path fill="#0d5eaf" fill-rule="evenodd" d="M0 228h512v56.9H0z"></path><path fill="#fff" fill-rule="evenodd" d="M0 284.9h512v57H0z"></path><path fill="#0d5eaf" fill-rule="evenodd" d="M0 341.9h512v57H0z"></path><path fill="#fff" fill-rule="evenodd" d="M0 398.9h512v57H0z"></path><path fill="#0d5eaf" d="M0 0h284.9v284.9H0z"></path><g fill="#fff" fill-rule="evenodd" stroke-width="1.3"><path d="M114 0h57v284.9h-57z"></path><path d="M0 114h284.9v57H0z"></path></g><path fill="#0d5eaf" fill-rule="evenodd" d="M0 455h512v57H0z"></path></symbol><symbol id="arrows-turn-to-dots" xmlns="http://www.w3.org/2000/svg" viewBox="0 0 512 512"><path d="M249.4 25.4c12.5-12.5 32.8-12.5 45.3 0s12.5 32.8 0 45.3L269.3 96 416 96c53 0 96 43 96 96v32c0 17.7-14.3 32-32 32s-32-14.3-32-32V192c0-17.7-14.3-32-32-32l-146.7 0 25.4 25.4c12.5 12.5 12.5 32.8 0 45.3s-32.8 12.5-45.3 0l-80-80c-12.5-12.5-12.5-32.8 0-45.3l80-80zm13.3 256l80 80c12.5 12.5 12.5 32.8 0 45.3l-80 80c-12.5 12.5-32.8 12.5-45.3 0s-12.5-32.8 0-45.3L242.7 416 96 416c-17.7 0-32 14.3-32 32v32c0 17.7-14.3 32-32 32s-32-14.3-32-32V448c0-53 43-96 96-96l146.7 0-25.4-25.4c-12.5-12.5-12.5-32.8 0-45.3s32.8-12.5 45.3 0zM384 384a64 64 0 1 1 128 0 64 64 0 1 1 -128 0zM64 192A64 64 0 1 1 64 64a64 64 0 1 1 0 128z"></path></symbol><symbol id="fill" xmlns="http://www.w3.org/2000/svg" viewBox="0 0 512 512"><path d="M86.6 9.4C74.1-3.1 53.9-3.1 41.4 9.4s-12.5 32.8 0 45.3L122.7 136 30.6 228.1c-37.5 37.5-37.5 98.3 0 135.8L148.1 481.4c37.5 37.5 98.3 37.5 135.8 0L474.3 290.9c28.1-28.1 28.1-73.7 0-101.8L322.9 37.7c-28.1-28.1-73.7-28.1-101.8 0L168 90.7 86.6 9.4zM168 181.3l49.4 49.4c12.5 12.5 32.8 12.5 45.3 0s12.5-32.8 0-45.3L213.3 136l53.1-53.1c3.1-3.1 8.2-3.1 11.3 0L429.1 234.3c3.1 3.1 3.1 8.2 0 11.3L386.7 288H67.5c1.4-5.4 4.2-10.4 8.4-14.6L168 181.3z"></path></symbol><symbol id="globe" xmlns="http://www.w3.org/2000/svg" viewBox="0 0 24 24"><path d="M16.359 14.016h3.375q0.281-1.313 0.281-2.016t-0.281-2.016h-3.375q0.141 0.984 0.141 2.016t-0.141 2.016zM14.578 19.547q1.172-0.375 2.438-1.43t1.922-2.133h-2.953q-0.469 1.875-1.406 3.563zM14.344 14.016q0.141-0.984 0.141-2.016t-0.141-2.016h-4.688q-0.141 0.984-0.141 2.016t0.141 2.016h4.688zM12 19.969q1.313-1.922 1.922-3.984h-3.844q0.609 2.063 1.922 3.984zM8.016 8.016q0.563-2.016 1.406-3.563-1.172 0.375-2.461 1.43t-1.898 2.133h2.953zM5.063 15.984q0.609 1.078 1.898 2.133t2.461 1.43q-0.938-1.688-1.406-3.563h-2.953zM4.266 14.016h3.375q-0.141-0.984-0.141-2.016t0.141-2.016h-3.375q-0.281 1.313-0.281 2.016t0.281 2.016zM12 4.031q-1.313 1.922-1.922 3.984h3.844q-0.609-2.063-1.922-3.984zM18.938 8.016q-0.656-1.078-1.922-2.133t-2.438-1.43q0.844 1.547 1.406 3.563h2.953zM12 2.016q4.125 0 7.055 2.93t2.93 7.055-2.93 7.055-7.055 2.93-7.055-2.93-2.93-7.055 2.93-7.055 7.055-2.93z"></path></symbol><symbol id="flag-us" xmlns="http://www.w3.org/2000/svg" viewBox="0 0 512 512"><path fill="#bd3d44" d="M0 0h512v512H0"></path><path stroke-width="40" d="M0 58h512M0 137h512M0 216h512M0 295h512M0 374h512M0 453h512"></path><path fill="#192f5d" d="M0 0h390v275H0z"></path><marker markerHeight="30" markerWidth="30"><path fill="#fff" d="m15 0 9.3 28.6L0 11h30L5.7 28.6"></path></marker><path fill="none" marker-mid="url(#us-a)" d="m0 0 18 11h65 65 65 65 66L51 39h65 65 65 65L18 66h65 65 65 65 66L51 94h65 65 65 65L18 121h65 65 65 65 66L51 149h65 65 65 65L18 177h65 65 65 65 66L51 205h65 65 65 65L18 232h65 65 65 65 66L0 0"></path></symbol><symbol id="arrows-up-down" xmlns="http://www.w3.org/2000/svg" viewBox="0 0 320 512"><path d="M182.6 9.4c-12.5-12.5-32.8-12.5-45.3 0l-96 96c-12.5 12.5-12.5 32.8 0 45.3s32.8 12.5 45.3 0L128 109.3V402.7L86.6 361.4c-12.5-12.5-32.8-12.5-45.3 0s-12.5 32.8 0 45.3l96 96c12.5 12.5 32.8 12.5 45.3 0l96-96c12.5-12.5 12.5-32.8 0-45.3s-32.8-12.5-45.3 0L192 402.7V109.3l41.4 41.4c12.5 12.5 32.8 12.5 45.3 0s12.5-32.8 0-45.3l-96-96z"></path></symbol><symbol id="arrows-spin" xmlns="http://www.w3.org/2000/svg" viewBox="0 0 512 512"><path d="M256 96c38.4 0 73.7 13.5 101.3 36.1l-32.6 32.6c-4.6 4.6-5.9 11.5-3.5 17.4s8.3 9.9 14.8 9.9H448c8.8 0 16-7.2 16-16V64c0-6.5-3.9-12.3-9.9-14.8s-12.9-1.1-17.4 3.5l-34 34C363.4 52.6 312.1 32 256 32c-10.9 0-21.5 .8-32 2.3V99.2c10.3-2.1 21-3.2 32-3.2zM132.1 154.7l32.6 32.6c4.6 4.6 11.5 5.9 17.4 3.5s9.9-8.3 9.9-14.8V64c0-8.8-7.2-16-16-16H64c-6.5 0-12.3 3.9-14.8 9.9s-1.1 12.9 3.5 17.4l34 34C52.6 148.6 32 199.9 32 256c0 10.9 .8 21.5 2.3 32H99.2c-2.1-10.3-3.2-21-3.2-32c0-38.4 13.5-73.7 36.1-101.3zM477.7 224H412.8c2.1 10.3 3.2 21 3.2 32c0 38.4-13.5 73.7-36.1 101.3l-32.6-32.6c-4.6-4.6-11.5-5.9-17.4-3.5s-9.9 8.3-9.9 14.8V448c0 8.8 7.2 16 16 16H448c6.5 0 12.3-3.9 14.8-9.9s1.1-12.9-3.5-17.4l-34-34C459.4 363.4 480 312.1 480 256c0-10.9-.8-21.5-2.3-32zM256 416c-38.4 0-73.7-13.5-101.3-36.1l32.6-32.6c4.6-4.6 5.9-11.5 3.5-17.4s-8.3-9.9-14.8-9.9H64c-8.8 0-16 7.2-16 16l0 112c0 6.5 3.9 12.3 9.9 14.8s12.9 1.1 17.4-3.5l34-34C148.6 459.4 199.9 480 256 480c10.9 0 21.5-.8 32-2.3V412.8c-10.3 2.1-21 3.2-32 3.2z"></path></symbol><symbol id="user" xmlns="http://www.w3.org/2000/svg" viewBox="0 0 448 512"><path d="M224 256A128 128 0 1 0 224 0a128 128 0 1 0 0 256zm-45.7 48C79.8 304 0 383.8 0 482.3C0 498.7 13.3 512 29.7 512H418.3c16.4 0 29.7-13.3 29.7-29.7C448 383.8 368.2 304 269.7 304H178.3z"></path></symbol><symbol id="trash" xmlns="http://www.w3.org/2000/svg" viewBox="0 0 448 512"><path d="M135.2 17.7L128 32H32C14.3 32 0 46.3 0 64S14.3 96 32 96H416c17.7 0 32-14.3 32-32s-14.3-32-32-32H320l-7.2-14.3C307.4 6.8 296.3 0 284.2 0H163.8c-12.1 0-23.2 6.8-28.6 17.7zM416 128H32L53.2 467c1.6 25.3 22.6 45 47.9 45H346.9c25.3 0 46.3-19.7 47.9-45L416 128z"></path></symbol><symbol id="plus" xmlns="http://www.w3.org/2000/svg" viewBox="0 0 448 512"><path d="M256 80c0-17.7-14.3-32-32-32s-32 14.3-32 32V224H48c-17.7 0-32 14.3-32 32s14.3 32 32 32H192V432c0 17.7 14.3 32 32 32s32-14.3 32-32V288H400c17.7 0 32-14.3 32-32s-14.3-32-32-32H256V80z"></path></symbol><symbol id="pen-to-square" xmlns="http://www.w3.org/2000/svg" viewBox="0 0 512 512"><path d="M471.6 21.7c-21.9-21.9-57.3-21.9-79.2 0L362.3 51.7l97.9 97.9 30.1-30.1c21.9-21.9 21.9-57.3 0-79.2L471.6 21.7zm-299.2 220c-6.1 6.1-10.8 13.6-13.5 21.9l-29.6 88.8c-2.9 8.6-.6 18.1 5.8 24.6s15.9 8.7 24.6 5.8l88.8-29.6c8.2-2.7 15.7-7.4 21.9-13.5L437.7 172.3 339.7 74.3 172.4 241.7zM96 64C43 64 0 107 0 160V416c0 53 43 96 96 96H352c53 0 96-43 96-96V320c0-17.7-14.3-32-32-32s-32 14.3-32 32v96c0 17.7-14.3 32-32 32H96c-17.7 0-32-14.3-32-32V160c0-17.7 14.3-32 32-32h96c17.7 0 32-14.3 32-32s-14.3-32-32-32H96z"></path></symbol><symbol id="trash-can" xmlns="http://www.w3.org/2000/svg" viewBox="0 0 448 512"><path d="M135.2 17.7C140.6 6.8 151.7 0 163.8 0H284.2c12.1 0 23.2 6.8 28.6 17.7L320 32h96c17.7 0 32 14.3 32 32s-14.3 32-32 32H32C14.3 96 0 81.7 0 64S14.3 32 32 32h96l7.2-14.3zM32 128H416V448c0 35.3-28.7 64-64 64H96c-35.3 0-64-28.7-64-64V128zm96 64c-8.8 0-16 7.2-16 16V432c0 8.8 7.2 16 16 16s16-7.2 16-16V208c0-8.8-7.2-16-16-16zm96 0c-8.8 0-16 7.2-16 16V432c0 8.8 7.2 16 16 16s16-7.2 16-16V208c0-8.8-7.2-16-16-16zm96 0c-8.8 0-16 7.2-16 16V432c0 8.8 7.2 16 16 16s16-7.2 16-16V208c0-8.8-7.2-16-16-16z"></path></symbol></svg>